<?xml version="1.0" encoding="UTF-8"?>
<svg id="Layer_1" data-name="Layer 1" xmlns="http://www.w3.org/2000/svg" viewBox="0 0 580.26 658.03">
  <defs>
    <style>
      .cls-1 {
        fill: #d2955d;
      }

      .cls-2 {
        fill: #363636;
      }
    </style>
  </defs>
  <path class="cls-2" d="M466.99,193.83s90.34-30.43,83.19-18.78c-7.15,11.65-64.12,16.71-99.04,55.27-17.35-54.77-32.24-194.8-108.01-202.14C170.12,11.44,52.09,169.79,42.08,339.33c-27.76,275.95,202.84,337.48,354.22,248.37,126.78-74.63.66-153.48-94.68-150.51-13.26-12.88,71.91-72.74,85.45-91.76,7.65-10.75,31.61-42.71,16.13-55.37-46.5-26.62-101.2,24.19-145.63,40.35-14.46-15.38,38.24-55.99,50.9-63.6,39.39-23.68,100.03-31.66,125.45-5.18,49.6,69.45-86.93,135.06-73.08,150.4,259.62,78.4,31.91,303.26-198.06,232.39C-35.29,552.88-24.78,351.7,48.38,186.42,109.54,46.62,278.5-45.36,391.79,23.2c42.92,25.97,69.55,165.62,75.2,170.63Z"/>
  <ellipse class="cls-1" cx="568.69" cy="166.25" rx="11.58" ry="11.58"/>
  <path class="cls-2" d="M192.87,476.9c7.9,17.74,11.31,26.12,16.08,47.26,4.75,21.12,4.81,31.36,3.67,47.46-1.12,16.12-8.79,28.19-17.63,32.13-.94.43-1.28.54-2.76.83-5.92.71-13.02-1.24-16.32-7.59-.83-1.6-5.29-11-6.8-16.07-6.99-23.41-7.55-30.1-9.77-54.86-2.55-28.44-.07-45.37,1.07-56.73.67-6.7,2.64-15.9.43-20.87-2.31-5.19-20.05-48.67-20.18-49.93-1.05-2.59-1.83-6.73-1.09-8.53.49-1.19,4.06-2.79,6.32-.95,2.27,1.84,4.31,4.34,5.38,5.69,8.88,11.32,16.86,37.57,16.86,37.57-.85-.62-4.69-3.57-2.55-11.9,1.49-5.78,6.61-18.36,11.95-25.16,3.49-4.44,6.57-7.91,10.37-9.6,2.13-.95,4.17-1.3,6.1-1.07,6.27.54,11.75,3.73,16.46,9.62,4.71,5.86,9.22,13.61,13.5,23.21l7.41,17.28c2.22,4.99,1.61,4.57,3.3,6.71.9-3.29,1.95-29.36,3.72-40.56,3.03-22.23,3.46-29.29,6.15-46.12,3.05-12,9.4-22.9,14.27-25.07,1.22-.54,2.41-.75,3.58-.59,6.03.85,10.97,17.51,16.31,29.52,3.37,7.58,10.92,32.02,13.86,42.89,2.92,10.87,6.45,25.46,10.58,43.76,4.67,20.3,8.78,37.01,12.34,50.14,3.56,13.13,7.63,24.79,12.14,34.92,5.19,11.66-15.46,23.05-21.06,10.48-5.68-12.74-13.79-34.53-17.5-50.03-3.72-15.5-7.43-35.04-11.17-55.75-2.63-14.1-4.04-23.9-5.77-31.68-1.23-7.03-3.83-24.5-3.95-24.96-1.08-5.79-1.62-18.09-6.33-15.19-4.71,2.9-3.91,22.3-5.6,38.36-1.15,15.69-1.75,31.75-3.83,50.84-.58,7.33-.5,15.61.49,24.37.98,8.76,2.49,19.53,4.55,32.35,2.32,13.8,3.64,23.94,3.97,30.42.34,6.51-3.03,13.47-5.91,14.34-3.41,1.04-8.77-3.61-10.36-7.99-2.08-5.75-2.86-12.85-3.56-21.12-.41-6.66-3.31-17.22-9.28-37.39-5.95-20.14-13.69-37.68-20.36-52.63-8.56-19.21-15.86-29.26-21.9-30.1-1.39-.26-2.7-.12-3.92.42-2.59,1.15-4.94,3.73-7.3,7.56-4.41,7.14-5.82,24.97-5.46,28.07-.18.91.68,2.26.68,2.26,5.47,7.76,14.12,23.45,18.81,33.98ZM168.99,494.4c.67,17.09,1.75,24.04,4.36,42.8,2.61,18.77,5.73,32.21,9.35,40.35,2.63,5.9,7.75,7.27,10.49,6.05,6.7-2.99,6.88-12.09,4.9-29.25-1.99-17.16-6.03-35.67-12.14-55.53-2.08-6.99-10.85-30.32-13.51-27.13-2.51-.4-3.49,10.62-3.45,22.7Z"/>
</svg>